<mxfile host="app.diagrams.net" modified="2021-09-13T06:52:20.560Z" agent="5.0 (Windows NT 10.0; Win64; x64) AppleWebKit/537.36 (KHTML, like Gecko) Chrome/93.0.4577.63 Safari/537.36" etag="BjMjARiCjYFOd_DVBgQe" version="15.0.6" type="github">
  <diagram id="_qgcyNdNhtAeg2nbtGfS" name="Page-1">
    <mxGraphModel dx="1021" dy="529" grid="1" gridSize="10" guides="1" tooltips="1" connect="1" arrows="1" fold="1" page="1" pageScale="1" pageWidth="827" pageHeight="1169" math="0" shadow="0">
      <root>
        <mxCell id="0" />
        <mxCell id="1" parent="0" />
        <mxCell id="JGCSctI5DQgtugF4R-DZ-2" style="edgeStyle=orthogonalEdgeStyle;rounded=0;orthogonalLoop=1;jettySize=auto;html=1;exitX=0.5;exitY=1;exitDx=0;exitDy=0;" edge="1" parent="1" source="JGCSctI5DQgtugF4R-DZ-1" target="JGCSctI5DQgtugF4R-DZ-10">
          <mxGeometry relative="1" as="geometry">
            <mxPoint x="400" y="360" as="targetPoint" />
          </mxGeometry>
        </mxCell>
        <mxCell id="JGCSctI5DQgtugF4R-DZ-1" value="зайти в раздел&lt;br&gt;&quot;домашнее задание&quot;" style="ellipse;whiteSpace=wrap;html=1;aspect=fixed;" vertex="1" parent="1">
          <mxGeometry x="350" y="190" width="100" height="100" as="geometry" />
        </mxCell>
        <mxCell id="JGCSctI5DQgtugF4R-DZ-21" style="edgeStyle=orthogonalEdgeStyle;rounded=0;orthogonalLoop=1;jettySize=auto;html=1;exitX=0.5;exitY=1;exitDx=0;exitDy=0;" edge="1" parent="1" source="JGCSctI5DQgtugF4R-DZ-10" target="JGCSctI5DQgtugF4R-DZ-13">
          <mxGeometry relative="1" as="geometry" />
        </mxCell>
        <mxCell id="JGCSctI5DQgtugF4R-DZ-31" style="edgeStyle=orthogonalEdgeStyle;rounded=0;orthogonalLoop=1;jettySize=auto;html=1;exitX=0;exitY=0.5;exitDx=0;exitDy=0;entryX=1;entryY=0.5;entryDx=0;entryDy=0;" edge="1" parent="1" source="JGCSctI5DQgtugF4R-DZ-10" target="JGCSctI5DQgtugF4R-DZ-12">
          <mxGeometry relative="1" as="geometry" />
        </mxCell>
        <mxCell id="JGCSctI5DQgtugF4R-DZ-10" value="проверить наличие дз" style="rounded=1;whiteSpace=wrap;html=1;" vertex="1" parent="1">
          <mxGeometry x="340" y="360" width="120" height="60" as="geometry" />
        </mxCell>
        <mxCell id="JGCSctI5DQgtugF4R-DZ-32" style="edgeStyle=orthogonalEdgeStyle;rounded=0;orthogonalLoop=1;jettySize=auto;html=1;exitX=0;exitY=0.5;exitDx=0;exitDy=0;entryX=0;entryY=0.5;entryDx=0;entryDy=0;" edge="1" parent="1" source="JGCSctI5DQgtugF4R-DZ-12" target="JGCSctI5DQgtugF4R-DZ-20">
          <mxGeometry relative="1" as="geometry">
            <mxPoint x="140" y="800" as="targetPoint" />
            <Array as="points">
              <mxPoint x="140" y="1040" />
            </Array>
          </mxGeometry>
        </mxCell>
        <mxCell id="JGCSctI5DQgtugF4R-DZ-12" value="домашки нет" style="rounded=1;whiteSpace=wrap;html=1;" vertex="1" parent="1">
          <mxGeometry x="140" y="360" width="120" height="60" as="geometry" />
        </mxCell>
        <mxCell id="JGCSctI5DQgtugF4R-DZ-22" style="edgeStyle=orthogonalEdgeStyle;rounded=0;orthogonalLoop=1;jettySize=auto;html=1;exitX=0.5;exitY=1;exitDx=0;exitDy=0;entryX=0.5;entryY=0;entryDx=0;entryDy=0;" edge="1" parent="1" source="JGCSctI5DQgtugF4R-DZ-13" target="JGCSctI5DQgtugF4R-DZ-14">
          <mxGeometry relative="1" as="geometry" />
        </mxCell>
        <mxCell id="JGCSctI5DQgtugF4R-DZ-28" style="edgeStyle=orthogonalEdgeStyle;rounded=0;orthogonalLoop=1;jettySize=auto;html=1;exitX=1;exitY=0.5;exitDx=0;exitDy=0;entryX=0;entryY=0.5;entryDx=0;entryDy=0;" edge="1" parent="1" source="JGCSctI5DQgtugF4R-DZ-13" target="JGCSctI5DQgtugF4R-DZ-15">
          <mxGeometry relative="1" as="geometry" />
        </mxCell>
        <mxCell id="JGCSctI5DQgtugF4R-DZ-13" value="домашка есть" style="rounded=1;whiteSpace=wrap;html=1;" vertex="1" parent="1">
          <mxGeometry x="340" y="500" width="120" height="60" as="geometry" />
        </mxCell>
        <mxCell id="JGCSctI5DQgtugF4R-DZ-23" style="edgeStyle=orthogonalEdgeStyle;rounded=0;orthogonalLoop=1;jettySize=auto;html=1;exitX=0.5;exitY=1;exitDx=0;exitDy=0;entryX=0.5;entryY=0;entryDx=0;entryDy=0;" edge="1" parent="1" source="JGCSctI5DQgtugF4R-DZ-14" target="JGCSctI5DQgtugF4R-DZ-16">
          <mxGeometry relative="1" as="geometry" />
        </mxCell>
        <mxCell id="JGCSctI5DQgtugF4R-DZ-14" value="сделать домашку" style="rounded=1;whiteSpace=wrap;html=1;" vertex="1" parent="1">
          <mxGeometry x="340" y="630" width="120" height="60" as="geometry" />
        </mxCell>
        <mxCell id="JGCSctI5DQgtugF4R-DZ-29" style="edgeStyle=orthogonalEdgeStyle;rounded=0;orthogonalLoop=1;jettySize=auto;html=1;exitX=0.5;exitY=1;exitDx=0;exitDy=0;entryX=0.5;entryY=0;entryDx=0;entryDy=0;" edge="1" parent="1" source="JGCSctI5DQgtugF4R-DZ-15" target="JGCSctI5DQgtugF4R-DZ-18">
          <mxGeometry relative="1" as="geometry" />
        </mxCell>
        <mxCell id="JGCSctI5DQgtugF4R-DZ-15" value="забить на выполнение" style="rounded=1;whiteSpace=wrap;html=1;" vertex="1" parent="1">
          <mxGeometry x="550" y="500" width="120" height="60" as="geometry" />
        </mxCell>
        <mxCell id="JGCSctI5DQgtugF4R-DZ-24" style="edgeStyle=orthogonalEdgeStyle;rounded=0;orthogonalLoop=1;jettySize=auto;html=1;exitX=0.5;exitY=1;exitDx=0;exitDy=0;" edge="1" parent="1" source="JGCSctI5DQgtugF4R-DZ-16" target="JGCSctI5DQgtugF4R-DZ-17">
          <mxGeometry relative="1" as="geometry" />
        </mxCell>
        <mxCell id="JGCSctI5DQgtugF4R-DZ-26" style="edgeStyle=orthogonalEdgeStyle;rounded=0;orthogonalLoop=1;jettySize=auto;html=1;exitX=0;exitY=0.5;exitDx=0;exitDy=0;entryX=1;entryY=0.5;entryDx=0;entryDy=0;" edge="1" parent="1" source="JGCSctI5DQgtugF4R-DZ-16" target="JGCSctI5DQgtugF4R-DZ-19">
          <mxGeometry relative="1" as="geometry" />
        </mxCell>
        <mxCell id="JGCSctI5DQgtugF4R-DZ-16" value="залить на майстат" style="rounded=1;whiteSpace=wrap;html=1;" vertex="1" parent="1">
          <mxGeometry x="340" y="750" width="120" height="60" as="geometry" />
        </mxCell>
        <mxCell id="JGCSctI5DQgtugF4R-DZ-25" style="edgeStyle=orthogonalEdgeStyle;rounded=0;orthogonalLoop=1;jettySize=auto;html=1;exitX=0.5;exitY=1;exitDx=0;exitDy=0;entryX=0.5;entryY=0;entryDx=0;entryDy=0;" edge="1" parent="1" source="JGCSctI5DQgtugF4R-DZ-17" target="JGCSctI5DQgtugF4R-DZ-20">
          <mxGeometry relative="1" as="geometry" />
        </mxCell>
        <mxCell id="JGCSctI5DQgtugF4R-DZ-17" value="домашка выполнена верно" style="rounded=1;whiteSpace=wrap;html=1;" vertex="1" parent="1">
          <mxGeometry x="340" y="880" width="120" height="60" as="geometry" />
        </mxCell>
        <mxCell id="JGCSctI5DQgtugF4R-DZ-30" style="edgeStyle=orthogonalEdgeStyle;rounded=0;orthogonalLoop=1;jettySize=auto;html=1;exitX=0.5;exitY=1;exitDx=0;exitDy=0;entryX=1;entryY=0.5;entryDx=0;entryDy=0;" edge="1" parent="1" source="JGCSctI5DQgtugF4R-DZ-18" target="JGCSctI5DQgtugF4R-DZ-20">
          <mxGeometry relative="1" as="geometry" />
        </mxCell>
        <mxCell id="JGCSctI5DQgtugF4R-DZ-18" value="получить кол" style="rounded=1;whiteSpace=wrap;html=1;" vertex="1" parent="1">
          <mxGeometry x="550" y="630" width="120" height="60" as="geometry" />
        </mxCell>
        <mxCell id="JGCSctI5DQgtugF4R-DZ-27" style="edgeStyle=orthogonalEdgeStyle;rounded=0;orthogonalLoop=1;jettySize=auto;html=1;exitX=0.5;exitY=0;exitDx=0;exitDy=0;entryX=0;entryY=0.5;entryDx=0;entryDy=0;" edge="1" parent="1" source="JGCSctI5DQgtugF4R-DZ-19" target="JGCSctI5DQgtugF4R-DZ-14">
          <mxGeometry relative="1" as="geometry" />
        </mxCell>
        <mxCell id="JGCSctI5DQgtugF4R-DZ-19" value="домашка выполнена неверно" style="rounded=1;whiteSpace=wrap;html=1;" vertex="1" parent="1">
          <mxGeometry x="160" y="750" width="120" height="60" as="geometry" />
        </mxCell>
        <mxCell id="JGCSctI5DQgtugF4R-DZ-20" value="конец" style="ellipse;whiteSpace=wrap;html=1;aspect=fixed;" vertex="1" parent="1">
          <mxGeometry x="360" y="1000" width="80" height="80" as="geometry" />
        </mxCell>
      </root>
    </mxGraphModel>
  </diagram>
</mxfile>
